<?xml version="1.0" encoding="utf-8"?>
<svg version="1.1" id="Layer_1" xmlns="http://www.w3.org/2000/svg" xmlns:xlink="http://www.w3.org/1999/xlink" x="0px" y="0px"
	 viewBox="0 0 512 100" style="enable-background:new 0 0 512 100;" xml:space="preserve">
<style type="text/css">
	.st0{display:none;}
	.st1{display:inline;}
	.st2{fill:#3B483B;}
	.st3{fill:#CC2E2E;}
	.st4{fill:#FFFFFF;}
</style>
<g id="Layer_2_00000015356503110618695200000016576021317437237663_" class="st0">
	<rect y="0.7" class="st1" width="512" height="512"/>
</g>
<g id="Layer_1_00000069398174894391805050000008855805519702290048_">
	<polygon class="st2" points="230.6,75 230.6,74.4 218.3,62.1 122.8,62.1 122.8,77.7 227.9,77.7 	"/>
	<polygon class="st2" points="196,39.8 122.8,39.8 122.8,55.4 211.5,55.4 	"/>
	<polygon class="st2" points="301.2,55.4 389.2,55.4 389.2,39.8 316.7,39.8 	"/>
	<g>
		<polygon class="st3" points="247.9,60 247.9,64.3 252.1,64.3 264.8,51.6 264.8,47.3 260.6,47.3 		"/>
		<path class="st3" d="M273.3,70.8l59.3-59.3h-44.5L277.6,22v10.6l-2.1,2.1h-10.6v-8.5l4.2-4.2l2.1-2.1H267l-4.2,4.2h-2.1V22
			l6.4-6.4h2.1l-4.2-4.2h-2.8l-5.7,6.4H250l-2.1,2.1v14.8h-10.6l-2.1-2.1V22l-10.6-10.6h-44.5l59.3,59.3v8.5h-4.2v6.4l2.1-2.1h4.2
			v4.2l-2.1,2.1h6.4l10.7,10.4l10.4-10.4h6.4l-2.1-2.1v-4.2h4.2l2.1,2.1v-6.4h-4.2L273.3,70.8L273.3,70.8z M271.2,62.2L256.4,77
			l-14.8-14.8V38.8l4.2,4.2h6.4l4.2-4.2l4.2,4.2h6.4l4.2-4.2V62.2z"/>
	</g>
	<polygon class="st2" points="173.7,17.7 122.8,17.7 122.8,33.2 189.2,33.2 	"/>
	<polygon class="st2" points="323.5,33.2 389.2,33.2 389.2,17.7 339,17.7 	"/>
	<path class="st2" d="M294.4,62.1l-12.3,12.3V75l2.7,2.7h104.4V62.1H294.4z M297.9,68.7h-1.3v3.9h-1.1v-3.9h-1.3v-0.9h3.7
		L297.9,68.7L297.9,68.7z M302.5,72.5l-0.1-1.8c0-0.6,0-1.3,0-2l0,0c-0.2,0.6-0.4,1.3-0.5,1.8l-0.6,1.9h-0.8l-0.5-1.8
		c-0.2-0.6-0.3-1.2-0.4-1.9l0,0c0,0.6,0,1.4-0.1,2l-0.1,1.8h-1l0.3-4.8h1.4l0.5,1.6c0.2,0.6,0.3,1.1,0.4,1.7l0,0
		c0.1-0.6,0.3-1.2,0.5-1.7l0.5-1.6h1.4l0.3,4.8H302.5z"/>
</g>
</svg>
